<?xml version="1.0" encoding="UTF-8"?>
<svg xmlns="http://www.w3.org/2000/svg" version="1.2" baseProfile="tiny-ps" viewBox="0 0 1000 1000">
  <title>KJ6ER</title>
  <rect width="1000" height="1000" fill="#1f5967"/>
  <g fill="#f4ecd6">
    <path transform="translate(110.00 575.73) scale(0.1156 -0.1156)" d="M188 1493H573V948L1128 1493H1575L856 786L1649 0H1167L573 588V0H188Z"/>
    <path transform="translate(293.39 575.73) scale(0.1156 -0.1156)" d="M188 1493H573V145Q573 -134 421.5 -272.0Q270 -410 -37 -410H-115V-119H-55Q65 -119 126.5 -52.0Q188 15 188 145Z"/>
    <path transform="translate(381.44 575.73) scale(0.1156 -0.1156)" d="M741 737Q640 737 589.5 671.5Q539 606 539 475Q539 344 589.5 278.5Q640 213 741 213Q843 213 893.5 278.5Q944 344 944 475Q944 606 893.5 671.5Q843 737 741 737ZM1217 1454V1178Q1122 1223 1038.0 1244.5Q954 1266 874 1266Q702 1266 606.0 1170.5Q510 1075 494 887Q560 936 637.0 960.5Q714 985 805 985Q1034 985 1174.5 851.0Q1315 717 1315 500Q1315 260 1158.0 115.5Q1001 -29 737 -29Q446 -29 286.5 167.5Q127 364 127 725Q127 1095 313.5 1306.5Q500 1518 825 1518Q928 1518 1025.0 1502.0Q1122 1486 1217 1454Z"/>
    <path transform="translate(546.11 575.73) scale(0.1156 -0.1156)" d="M188 1493H1227V1202H573V924H1188V633H573V291H1249V0H188Z"/>
    <path transform="translate(707.77 575.73) scale(0.1156 -0.1156)" d="M735 831Q856 831 908.5 876.0Q961 921 961 1024Q961 1126 908.5 1170.0Q856 1214 735 1214H573V831ZM573 565V0H188V1493H776Q1071 1493 1208.5 1394.0Q1346 1295 1346 1081Q1346 933 1274.5 838.0Q1203 743 1059 698Q1138 680 1200.5 616.5Q1263 553 1327 424L1536 0H1126L944 371Q889 483 832.5 524.0Q776 565 682 565Z"/>
  </g>
</svg>
